<svg id="Layer_1" data-name="Layer 1" xmlns="http://www.w3.org/2000/svg" viewBox="0 0 200 200"><defs><style>.cls-1{fill:#fff;}</style></defs><title>Wondicon - UI (Free)</title><path class="cls-1" d="M100,175.69a5,5,0,0,1-3.37-1.31L48.06,130H29.31a5,5,0,0,1-5-5V75a5,5,0,0,1,5-5H48.06L96.63,25.62A5,5,0,0,1,105,29.31V170.69a5,5,0,0,1-5,5ZM34.31,120H50a5,5,0,0,1,3.37,1.31l41.63,38V40.65l-41.63,38A5,5,0,0,1,50,80H34.31Z"/><path class="cls-1" d="M147.9,127.79A27.79,27.79,0,1,1,175.69,100,27.83,27.83,0,0,1,147.9,127.79Zm0-45.58A17.79,17.79,0,1,0,165.69,100,17.81,17.81,0,0,0,147.9,82.21Z"/><path class="cls-1" d="M131.79,121.11a5,5,0,0,1-3.54-8.53l32.23-32.23a5,5,0,0,1,7.07,7.07l-32.23,32.23A5,5,0,0,1,131.79,121.11Z"/></svg>